<svg id="svg" version="1.1" xmlns="http://www.w3.org/2000/svg" xmlns:xlink="http://www.w3.org/1999/xlink" width="400" height="400" viewBox="0, 0, 400,400"><g id="svgg"><path id="path0" d="M46.007 57.496 C 45.681 57.624,45.173 57.970,44.879 58.264 C 44.584 58.559,44.124 58.800,43.856 58.800 C 42.925 58.800,39.687 62.563,39.387 63.994 C 39.227 64.761,38.830 65.792,38.507 66.286 C 37.472 67.865,38.865 73.956,40.729 76.009 C 44.591 80.262,45.253 80.393,62.920 80.397 C 78.374 80.401,78.143 80.352,78.537 83.701 C 78.675 84.878,79.151 86.895,79.594 88.183 C 80.041 89.481,80.400 91.561,80.400 92.850 C 80.400 94.335,80.674 95.722,81.159 96.688 C 81.588 97.543,82.029 99.532,82.173 101.266 C 82.313 102.952,82.686 104.851,83.003 105.487 C 83.320 106.122,83.695 107.982,83.836 109.621 C 83.977 111.259,84.354 113.140,84.674 113.800 C 84.994 114.460,85.422 116.583,85.626 118.517 C 85.830 120.451,86.269 122.561,86.603 123.205 C 86.936 123.849,87.322 125.776,87.460 127.488 C 87.599 129.200,88.023 131.230,88.402 132.000 C 88.795 132.799,89.182 134.797,89.304 136.651 C 89.434 138.634,89.768 140.284,90.158 140.880 C 90.527 141.444,90.907 143.197,91.055 145.028 C 91.196 146.773,91.569 148.710,91.884 149.334 C 92.198 149.958,92.622 152.077,92.826 154.045 C 93.029 156.012,93.445 158.022,93.751 158.511 C 94.056 159.000,94.414 160.660,94.547 162.200 C 94.680 163.740,95.151 166.031,95.594 167.290 C 96.037 168.550,96.400 170.568,96.400 171.775 C 96.400 172.983,96.737 174.832,97.148 175.885 C 97.560 176.938,98.029 179.060,98.190 180.600 C 98.352 182.140,98.721 183.858,99.010 184.418 C 99.299 184.977,99.659 186.777,99.811 188.418 C 99.962 190.058,100.351 191.940,100.674 192.600 C 100.997 193.260,101.425 195.494,101.626 197.564 C 101.830 199.668,102.260 201.737,102.600 202.256 C 102.935 202.767,103.321 204.584,103.457 206.293 C 103.594 208.002,104.018 210.120,104.400 211.000 C 104.782 211.880,105.205 214.117,105.340 215.972 C 105.475 217.827,105.767 219.456,105.988 219.593 C 106.464 219.887,107.199 223.497,107.202 225.555 C 107.204 226.350,107.488 227.540,107.834 228.200 C 108.180 228.860,108.629 230.983,108.830 232.917 C 109.032 234.851,109.443 236.921,109.743 237.517 C 110.044 238.113,110.390 239.863,110.514 241.406 C 110.637 242.950,111.112 245.161,111.569 246.321 C 112.096 247.659,112.400 249.342,112.400 250.926 C 112.400 252.520,112.621 253.738,113.013 254.297 C 113.349 254.778,113.812 256.753,114.041 258.686 C 114.270 260.618,114.716 262.830,115.031 263.600 C 116.793 267.897,116.325 273.129,114.112 273.901 C 112.891 274.327,110.164 276.030,109.166 276.990 C 108.818 277.326,108.395 277.600,108.226 277.600 C 107.789 277.600,102.085 283.493,101.544 284.505 C 101.295 284.969,100.934 285.541,100.740 285.775 C 99.731 286.995,98.490 289.187,98.237 290.195 C 98.079 290.823,97.602 291.780,97.175 292.322 C 96.749 292.864,96.400 293.923,96.400 294.676 C 96.400 295.428,96.002 296.889,95.516 297.922 C 94.179 300.763,94.172 311.676,95.506 314.478 C 95.998 315.511,96.400 317.058,96.400 317.916 C 96.400 318.968,96.661 319.712,97.200 320.200 C 97.640 320.598,98.000 321.322,98.000 321.808 C 98.000 322.294,98.359 323.149,98.799 323.707 C 99.238 324.266,99.733 325.079,99.899 325.516 C 100.838 327.988,109.551 336.736,112.005 337.672 C 112.397 337.822,112.834 338.132,112.976 338.361 C 113.118 338.591,113.991 338.980,114.917 339.226 C 115.843 339.473,116.870 339.907,117.200 340.192 C 117.530 340.477,118.783 340.916,119.985 341.169 C 121.187 341.421,122.305 341.847,122.471 342.114 C 122.983 342.941,139.114 342.788,140.400 341.943 C 140.950 341.582,142.240 341.168,143.267 341.024 C 144.294 340.879,145.347 340.504,145.607 340.191 C 145.868 339.878,146.681 339.509,147.414 339.371 C 148.148 339.233,149.057 338.779,149.436 338.360 C 149.814 337.942,150.357 337.600,150.641 337.600 C 150.926 337.600,151.644 337.150,152.238 336.600 C 152.831 336.050,153.468 335.600,153.652 335.600 C 154.323 335.600,161.600 327.813,161.600 327.094 C 161.600 326.886,162.050 326.181,162.600 325.527 C 163.150 324.873,163.600 324.104,163.600 323.818 C 163.600 323.532,163.858 323.083,164.174 322.821 C 164.490 322.559,164.870 321.772,165.017 321.072 C 165.165 320.373,165.627 319.239,166.043 318.553 C 166.459 317.867,166.800 316.596,166.800 315.728 C 166.800 314.861,167.176 312.722,167.637 310.975 C 168.500 307.700,168.493 305.675,167.608 302.000 C 166.776 298.550,166.394 293.851,166.918 293.518 C 168.745 292.357,259.764 293.269,258.635 294.437 C 258.549 294.527,258.271 296.310,258.019 298.400 C 257.766 300.490,257.389 302.371,257.180 302.580 C 256.689 303.071,256.686 308.448,257.176 309.736 C 257.382 310.280,257.755 312.227,258.003 314.062 C 258.251 315.898,258.677 317.760,258.950 318.200 C 259.222 318.640,259.661 319.744,259.925 320.653 C 260.188 321.561,260.673 322.528,261.002 322.802 C 261.331 323.075,261.600 323.608,261.600 323.987 C 261.600 324.366,262.050 325.199,262.600 325.838 C 263.149 326.477,263.599 327.208,263.600 327.462 C 263.600 328.046,270.919 335.600,271.484 335.600 C 271.714 335.600,272.149 335.898,272.451 336.262 C 272.753 336.626,273.585 337.168,274.300 337.467 C 275.015 337.766,275.600 338.186,275.600 338.400 C 275.600 338.613,276.425 338.996,277.434 339.250 C 278.443 339.504,279.355 339.938,279.461 340.215 C 279.567 340.491,280.497 340.840,281.527 340.990 C 282.557 341.140,283.850 341.563,284.400 341.931 C 286.056 343.039,300.717 343.157,302.504 342.077 C 303.217 341.647,304.640 341.174,305.667 341.028 C 306.694 340.881,307.747 340.504,308.007 340.191 C 308.268 339.878,309.081 339.509,309.814 339.371 C 310.548 339.233,311.457 338.779,311.836 338.360 C 312.214 337.942,312.786 337.600,313.106 337.600 C 313.426 337.600,314.073 337.250,314.544 336.823 C 315.015 336.396,316.570 335.062,318.000 333.860 C 319.430 332.657,321.230 330.828,322.000 329.795 C 322.770 328.761,323.805 327.509,324.300 327.012 C 324.795 326.515,325.200 325.836,325.200 325.503 C 325.200 325.170,325.461 324.682,325.780 324.417 C 326.098 324.152,326.571 323.275,326.830 322.468 C 327.089 321.661,327.533 320.730,327.816 320.400 C 328.098 320.070,328.512 318.810,328.735 317.600 C 328.957 316.390,329.422 314.860,329.767 314.200 C 330.811 312.206,330.670 300.575,329.571 298.022 C 329.109 296.948,328.799 295.498,328.871 294.747 L 329.000 293.400 334.824 293.189 C 340.056 292.999,340.763 292.888,341.778 292.089 C 342.399 291.600,343.135 291.200,343.412 291.200 C 343.971 291.200,346.400 289.059,346.400 288.565 C 346.400 288.393,346.805 287.821,347.300 287.295 C 348.105 286.439,348.214 285.854,348.334 281.778 L 348.468 277.217 347.168 275.211 C 345.666 272.892,342.670 270.400,341.385 270.400 C 340.898 270.400,339.735 270.130,338.800 269.800 C 337.306 269.273,325.194 269.199,239.250 269.194 C 185.432 269.191,141.161 269.036,140.870 268.852 C 140.578 268.667,140.238 267.724,140.115 266.758 C 139.991 265.791,139.628 264.483,139.309 263.851 C 138.990 263.219,138.578 261.149,138.395 259.251 C 138.212 257.353,137.799 255.260,137.477 254.600 C 137.155 253.940,136.779 252.081,136.640 250.469 C 136.502 248.857,136.103 246.985,135.753 246.310 C 134.834 244.531,134.486 237.559,135.284 236.896 C 135.745 236.513,157.074 236.384,232.909 236.303 C 329.310 236.201,329.949 236.195,330.824 235.400 C 334.433 232.125,335.543 230.718,335.805 229.090 C 335.955 228.161,336.341 226.984,336.664 226.475 C 336.987 225.967,337.354 224.257,337.481 222.675 C 337.608 221.094,338.021 219.170,338.400 218.400 C 338.778 217.630,339.198 215.636,339.333 213.968 C 339.469 212.292,339.937 210.145,340.380 209.168 C 340.866 208.097,341.186 206.530,341.191 205.194 C 341.197 203.830,341.483 202.456,341.941 201.594 C 342.367 200.792,342.801 198.842,342.964 197.000 C 343.119 195.240,343.488 193.429,343.783 192.975 C 344.079 192.521,344.451 190.901,344.612 189.375 C 344.772 187.849,345.240 185.738,345.652 184.685 C 346.063 183.632,346.404 181.832,346.409 180.685 C 346.414 179.452,346.753 177.864,347.238 176.800 C 347.688 175.810,348.156 173.740,348.276 172.200 C 348.396 170.660,348.725 169.028,349.008 168.574 C 349.290 168.120,349.712 166.190,349.945 164.284 C 350.178 162.379,350.624 160.410,350.937 159.910 C 351.250 159.409,351.606 157.700,351.729 156.112 C 351.851 154.523,352.242 152.610,352.598 151.861 C 352.953 151.112,353.388 149.070,353.564 147.323 C 353.740 145.577,354.160 143.710,354.497 143.174 C 354.833 142.638,355.230 140.760,355.377 139.000 C 355.526 137.236,355.922 135.376,356.261 134.856 C 356.601 134.335,357.015 132.389,357.186 130.512 C 357.364 128.563,357.706 126.981,357.989 126.807 C 358.264 126.637,358.653 124.943,358.869 122.977 C 359.082 121.037,359.506 118.968,359.812 118.377 C 360.117 117.786,360.485 116.065,360.629 114.552 C 360.773 113.038,361.150 111.260,361.467 110.600 C 362.645 108.150,362.617 104.814,361.397 102.181 C 360.299 99.811,357.452 96.400,356.571 96.400 C 356.316 96.400,355.593 95.995,354.964 95.500 L 353.820 94.600 229.631 94.497 C 131.689 94.415,105.379 94.289,105.138 93.900 C 104.971 93.629,104.710 92.415,104.559 91.203 C 104.408 89.992,104.051 88.640,103.766 88.200 C 103.480 87.760,103.123 85.960,102.972 84.200 C 102.821 82.440,102.361 80.245,101.949 79.322 C 101.535 78.395,101.192 76.694,101.182 75.522 C 101.173 74.355,100.882 72.680,100.536 71.800 C 100.190 70.920,99.703 68.913,99.453 67.341 C 99.204 65.768,98.709 64.148,98.354 63.741 C 97.998 63.333,97.590 62.505,97.446 61.900 C 97.302 61.295,96.925 60.800,96.606 60.800 C 96.288 60.800,95.842 60.452,95.614 60.027 C 95.387 59.602,94.796 59.127,94.300 58.972 C 93.805 58.817,92.971 58.355,92.446 57.945 C 91.498 57.205,47.825 56.782,46.007 57.496 M333.600 120.256 C 333.600 120.617,333.302 121.129,332.938 121.396 C 332.443 121.757,332.203 122.855,331.984 125.758 C 331.790 128.324,331.483 129.868,331.080 130.319 C 330.682 130.763,330.369 132.291,330.182 134.709 C 329.973 137.411,329.728 138.512,329.280 138.763 C 328.845 139.007,328.594 140.028,328.422 142.254 C 328.281 144.086,327.911 145.818,327.535 146.400 C 327.139 147.014,326.785 148.786,326.617 150.994 C 326.466 152.971,326.150 154.707,325.914 154.853 C 325.413 155.163,324.858 158.210,324.824 160.839 C 324.808 162.077,324.539 162.979,324.000 163.600 C 323.371 164.325,323.200 165.097,323.200 167.207 C 323.200 169.368,323.028 170.111,322.320 171.011 C 321.601 171.925,321.409 172.792,321.267 175.760 C 321.141 178.393,320.926 179.512,320.485 179.835 C 320.054 180.149,319.791 181.413,319.583 184.163 C 319.372 186.960,319.114 188.180,318.662 188.523 C 318.234 188.848,317.945 190.020,317.754 192.200 C 317.589 194.085,317.256 195.564,316.945 195.800 C 316.621 196.045,316.281 197.692,316.068 200.047 C 315.847 202.486,315.479 204.238,315.060 204.836 C 314.697 205.354,314.400 206.435,314.400 207.239 C 314.400 208.043,314.288 209.263,314.150 209.950 L 313.900 211.200 222.179 211.200 L 130.458 211.200 130.179 208.968 C 130.025 207.741,129.671 206.649,129.391 206.541 C 129.055 206.412,128.786 204.992,128.597 202.357 C 128.415 199.816,128.109 198.166,127.754 197.811 C 127.420 197.477,127.029 195.616,126.776 193.155 C 126.523 190.692,126.144 188.885,125.825 188.628 C 125.496 188.362,125.209 186.890,125.070 184.740 C 124.915 182.357,124.589 180.803,124.022 179.746 C 123.395 178.575,123.200 177.476,123.200 175.106 C 123.200 172.614,123.053 171.853,122.458 171.258 C 121.872 170.672,121.672 169.699,121.513 166.650 C 121.357 163.667,121.144 162.601,120.579 161.977 C 120.028 161.368,119.787 160.240,119.600 157.400 C 119.427 154.766,119.157 153.415,118.705 152.915 C 118.256 152.418,117.992 151.115,117.841 148.645 C 117.704 146.406,117.412 144.850,117.053 144.445 C 116.720 144.069,116.305 142.150,116.059 139.852 C 115.817 137.590,115.395 135.626,115.071 135.252 C 114.713 134.840,114.420 133.211,114.274 130.828 C 114.107 128.111,113.878 126.964,113.455 126.727 C 112.821 126.372,112.095 120.818,112.580 120.033 C 113.082 119.220,333.600 119.442,333.600 120.256 M135.579 293.774 C 135.841 294.090,136.558 294.459,137.173 294.594 C 137.787 294.729,138.662 295.236,139.117 295.720 C 139.572 296.204,140.182 296.823,140.472 297.095 C 143.391 299.833,144.402 302.285,144.391 306.597 C 144.384 309.556,144.242 310.379,143.600 311.200 C 143.170 311.750,142.814 312.406,142.809 312.659 C 142.791 313.570,140.538 315.928,138.254 317.425 C 134.493 319.890,127.366 319.877,124.261 317.399 C 122.576 316.054,120.801 314.267,120.800 313.916 C 120.800 313.759,120.440 313.295,119.999 312.885 C 118.195 311.204,117.923 302.595,119.602 300.316 C 120.041 299.720,120.400 299.066,120.400 298.863 C 120.400 298.283,124.010 295.294,126.000 294.226 C 128.196 293.047,134.720 292.739,135.579 293.774 M298.509 294.000 C 299.069 294.440,299.743 294.800,300.008 294.800 C 300.850 294.800,304.395 298.040,304.646 299.039 C 304.778 299.568,305.033 300.000,305.212 300.000 C 306.894 300.000,307.020 310.949,305.360 312.800 C 305.064 313.130,304.149 314.165,303.327 315.100 C 302.505 316.035,301.607 316.800,301.331 316.800 C 301.054 316.800,300.646 317.140,300.424 317.556 C 299.204 319.835,289.541 319.696,286.615 317.357 C 284.396 315.583,282.406 313.408,282.403 312.754 C 282.401 312.399,282.040 311.650,281.600 311.091 C 280.434 309.609,280.434 302.690,281.600 301.200 C 282.030 300.650,282.386 299.971,282.391 299.691 C 282.405 298.903,286.722 294.906,287.872 294.618 C 288.435 294.476,289.158 294.099,289.477 293.780 C 290.447 292.810,297.206 292.975,298.509 294.000 " stroke="none" fill="#527646" fill-rule="evenodd"></path><path id="path1" d="M0.000 200.000 L 0.000 400.000 200.000 400.000 L 400.000 400.000 400.000 200.000 L 400.000 0.000 200.000 0.000 L 0.000 0.000 0.000 200.000 M90.749 56.385 C 92.381 56.621,93.614 57.050,94.175 57.577 C 94.657 58.029,95.189 58.400,95.357 58.400 C 96.481 58.400,99.813 63.223,100.192 65.400 C 100.346 66.280,100.639 67.203,100.844 67.451 C 101.049 67.699,101.411 69.499,101.648 71.451 C 101.885 73.403,102.342 75.630,102.663 76.400 C 102.984 77.170,103.339 78.970,103.453 80.400 C 103.567 81.830,103.996 83.990,104.405 85.200 C 104.815 86.410,105.263 88.591,105.401 90.046 C 105.607 92.217,105.809 92.775,106.526 93.151 C 107.176 93.492,139.064 93.634,231.067 93.705 L 354.733 93.800 355.950 94.700 C 356.620 95.195,357.340 95.600,357.550 95.600 C 358.300 95.600,361.144 98.619,361.413 99.700 C 361.564 100.305,361.825 100.800,361.995 100.800 C 363.380 100.800,363.626 110.109,362.310 112.716 C 361.944 113.440,361.521 115.330,361.369 116.916 C 361.217 118.502,360.782 120.610,360.403 121.600 C 360.024 122.590,359.605 124.487,359.472 125.815 C 359.339 127.144,358.966 128.861,358.644 129.632 C 358.322 130.404,357.933 132.197,357.779 133.617 C 357.625 135.038,357.260 136.787,356.968 137.505 C 356.676 138.222,356.236 140.274,355.991 142.065 C 355.746 143.855,355.302 145.968,355.006 146.760 C 354.709 147.552,354.356 149.138,354.221 150.285 C 354.087 151.431,353.622 153.480,353.188 154.837 C 352.755 156.194,352.400 157.973,352.400 158.789 C 352.400 159.606,352.067 161.248,351.660 162.437 C 351.252 163.627,350.789 165.762,350.630 167.183 C 350.472 168.603,350.106 170.330,349.817 171.020 C 349.529 171.710,349.162 173.428,349.002 174.837 C 348.842 176.247,348.451 178.030,348.133 178.800 C 347.815 179.570,347.376 181.621,347.158 183.358 C 346.939 185.095,346.518 186.985,346.222 187.558 C 345.926 188.131,345.552 189.860,345.390 191.400 C 345.229 192.940,344.786 195.010,344.405 196.000 C 344.025 196.990,343.606 199.010,343.473 200.489 C 343.341 201.968,342.974 203.678,342.658 204.289 C 342.342 204.900,341.955 206.660,341.798 208.200 C 341.640 209.740,341.270 211.540,340.974 212.200 C 340.679 212.860,340.236 214.920,339.989 216.777 C 339.742 218.635,339.309 220.615,339.026 221.177 C 338.743 221.740,338.397 223.350,338.256 224.756 C 338.116 226.161,337.616 228.141,337.146 229.156 C 336.676 230.170,336.125 231.360,335.922 231.800 C 335.141 233.494,331.401 236.800,330.267 236.800 C 329.948 236.800,328.903 237.156,327.944 237.591 C 326.222 238.372,324.983 238.383,230.900 238.391 L 135.600 238.400 135.600 239.785 C 135.600 240.547,135.935 242.032,136.344 243.085 C 136.753 244.138,137.211 246.245,137.362 247.766 C 137.512 249.287,137.988 251.576,138.418 252.853 C 138.848 254.130,139.200 255.933,139.200 256.859 C 139.200 257.786,139.551 259.636,139.979 260.972 C 140.407 262.307,140.870 264.435,141.008 265.700 L 141.258 268.000 238.929 268.034 C 332.929 268.066,340.931 268.146,341.530 269.063 C 341.678 269.290,342.330 269.607,342.978 269.766 C 344.358 270.104,348.102 273.848,348.686 275.474 C 350.072 279.336,350.463 280.961,350.281 282.108 C 349.933 284.302,348.503 287.897,347.631 288.769 C 347.174 289.226,346.800 289.780,346.800 290.000 C 346.800 290.220,346.530 290.400,346.200 290.400 C 345.870 290.400,345.600 290.567,345.600 290.772 C 345.600 292.424,341.798 293.736,336.332 293.968 C 330.038 294.235,330.105 294.203,330.708 296.707 C 331.911 301.703,331.605 314.912,330.238 316.999 C 329.897 317.519,329.503 318.668,329.361 319.553 C 329.219 320.439,328.765 321.469,328.352 321.844 C 327.938 322.218,327.600 322.937,327.600 323.441 C 327.600 323.946,327.150 324.844,326.600 325.438 C 326.050 326.031,325.600 326.752,325.600 327.039 C 325.600 327.325,325.356 327.704,325.058 327.880 C 324.761 328.056,324.292 328.650,324.016 329.200 C 323.502 330.227,317.319 336.400,316.804 336.400 C 316.646 336.400,316.031 336.850,315.438 337.400 C 314.844 337.950,314.188 338.400,313.979 338.400 C 313.771 338.400,313.240 338.760,312.800 339.200 C 312.360 339.640,311.664 340.000,311.254 340.000 C 310.844 340.000,310.079 340.337,309.554 340.748 C 309.029 341.159,307.996 341.628,307.258 341.789 C 306.520 341.950,305.170 342.402,304.258 342.793 C 302.945 343.357,297.231 344.088,294.200 344.081 C 290.218 344.071,284.319 343.387,283.000 342.781 C 282.120 342.377,280.860 341.922,280.200 341.770 C 279.540 341.617,278.730 341.269,278.400 340.997 C 278.070 340.724,277.125 340.284,276.300 340.020 C 275.475 339.755,274.800 339.390,274.800 339.208 C 274.800 339.027,274.305 338.696,273.700 338.474 C 273.095 338.251,271.812 337.334,270.849 336.435 C 269.887 335.536,269.007 334.800,268.894 334.800 C 268.509 334.800,264.418 330.601,264.409 330.196 C 264.404 329.974,264.040 329.568,263.600 329.293 C 263.160 329.018,262.800 328.547,262.800 328.246 C 262.800 327.944,262.515 327.462,262.167 327.173 C 261.523 326.638,260.529 324.918,259.409 322.400 C 259.066 321.630,258.530 320.460,258.218 319.800 C 257.905 319.140,257.528 317.808,257.380 316.841 C 257.231 315.873,256.818 314.433,256.461 313.641 C 255.508 311.523,255.548 300.850,256.517 298.651 C 256.893 297.799,257.200 296.404,257.200 295.549 L 257.200 293.997 212.500 294.098 L 167.800 294.200 167.666 295.149 C 167.592 295.672,167.927 297.328,168.410 298.830 C 169.515 302.268,169.424 312.287,168.264 314.887 C 167.899 315.705,167.600 316.838,167.600 317.405 C 167.600 317.973,167.150 319.282,166.600 320.315 C 166.050 321.348,165.600 322.427,165.600 322.713 C 165.600 322.999,165.268 323.720,164.863 324.316 C 164.457 324.912,163.608 326.210,162.975 327.200 C 161.579 329.385,161.397 329.602,158.501 332.510 C 154.840 336.186,154.598 336.400,154.100 336.400 C 153.840 336.400,153.457 336.721,153.247 337.113 C 153.037 337.505,151.546 338.502,149.933 339.330 C 148.320 340.157,146.730 340.980,146.400 341.159 C 140.002 344.626,126.641 345.021,118.200 341.992 C 116.880 341.518,115.740 340.966,115.667 340.765 C 115.593 340.564,115.363 340.400,115.154 340.400 C 114.629 340.400,112.412 339.345,111.164 338.501 C 110.594 338.115,109.424 337.327,108.564 336.749 C 106.525 335.379,102.157 331.000,100.967 329.134 C 100.453 328.327,99.845 327.551,99.616 327.410 C 99.387 327.269,99.200 326.847,99.200 326.473 C 99.200 326.099,98.856 325.578,98.436 325.315 C 98.016 325.053,97.542 324.245,97.384 323.519 C 97.225 322.794,96.759 321.771,96.348 321.246 C 95.937 320.721,95.600 319.857,95.600 319.324 C 95.600 318.792,95.200 317.511,94.710 316.478 C 93.345 313.596,93.338 298.772,94.702 295.922 C 95.196 294.889,95.600 293.608,95.600 293.076 C 95.600 292.543,95.935 291.679,96.345 291.154 C 96.755 290.629,97.223 289.776,97.385 289.259 C 97.671 288.346,98.938 286.235,100.180 284.600 C 102.338 281.760,103.229 280.741,105.101 278.979 C 106.257 277.890,107.607 276.693,108.101 276.317 C 108.596 275.941,109.566 275.176,110.258 274.617 C 110.950 274.058,111.673 273.600,111.865 273.600 C 114.677 273.600,115.961 269.656,114.275 266.200 C 113.953 265.540,113.573 263.620,113.431 261.934 C 113.289 260.248,112.915 258.352,112.601 257.721 C 112.286 257.091,111.846 255.050,111.624 253.187 C 111.401 251.324,110.963 249.080,110.649 248.200 C 110.336 247.320,109.949 245.340,109.789 243.800 C 109.630 242.260,109.271 240.550,108.992 240.000 C 108.713 239.450,108.351 237.740,108.189 236.200 C 108.027 234.660,107.558 232.342,107.147 231.048 C 106.736 229.754,106.400 228.023,106.400 227.200 C 106.400 226.377,106.044 224.589,105.609 223.227 C 105.173 221.864,104.707 219.546,104.572 218.075 C 104.437 216.604,104.083 214.854,103.785 214.186 C 103.487 213.518,103.051 211.417,102.815 209.517 C 102.578 207.617,102.142 205.463,101.845 204.731 C 101.547 203.999,101.183 202.161,101.036 200.648 C 100.888 199.134,100.508 197.276,100.192 196.518 C 99.875 195.761,99.509 193.939,99.379 192.471 C 99.248 191.002,98.808 188.810,98.401 187.600 C 97.994 186.390,97.560 184.279,97.437 182.908 C 97.314 181.538,96.851 179.338,96.407 178.021 C 95.963 176.703,95.600 174.923,95.600 174.065 C 95.600 173.206,95.264 171.446,94.853 170.152 C 94.442 168.858,93.974 166.540,93.813 165.000 C 93.652 163.460,93.277 161.614,92.980 160.898 C 92.683 160.182,92.326 158.472,92.186 157.098 C 92.047 155.724,91.604 153.520,91.202 152.200 C 90.800 150.880,90.366 148.720,90.238 147.400 C 90.110 146.080,89.730 144.220,89.393 143.266 C 89.056 142.313,88.680 140.423,88.556 139.066 C 88.432 137.710,88.089 135.952,87.793 135.160 C 87.497 134.368,87.053 132.208,86.808 130.360 C 86.562 128.512,86.111 126.280,85.806 125.400 C 85.501 124.520,85.137 122.641,84.998 121.225 C 84.858 119.809,84.494 118.168,84.188 117.577 C 83.883 116.986,83.520 115.265,83.382 113.752 C 83.244 112.238,82.798 109.920,82.392 108.600 C 81.986 107.280,81.533 105.030,81.386 103.600 C 81.239 102.170,80.777 99.971,80.359 98.713 C 79.942 97.455,79.600 95.723,79.600 94.865 C 79.600 94.006,79.262 92.246,78.850 90.952 C 78.437 89.658,77.968 87.283,77.806 85.674 C 77.421 81.820,78.202 82.000,61.874 81.998 C 51.229 81.996,47.973 81.876,47.173 81.459 C 46.609 81.165,45.631 80.794,45.000 80.636 C 43.670 80.302,41.775 78.900,39.958 76.905 C 37.687 74.412,35.989 65.596,37.589 64.607 C 37.802 64.475,38.325 63.609,38.750 62.683 C 39.631 60.764,41.601 58.580,42.793 58.202 C 43.237 58.061,43.600 57.800,43.600 57.622 C 43.600 57.174,45.514 56.459,47.200 56.278 C 50.280 55.948,88.369 56.041,90.749 56.385 M130.200 294.286 C 125.747 295.358,123.049 297.157,120.700 300.622 C 119.109 302.967,119.051 309.235,120.600 311.514 C 121.150 312.323,121.600 313.148,121.600 313.347 C 121.600 314.171,124.428 316.323,127.200 317.608 C 128.774 318.338,135.704 317.953,136.569 317.088 C 136.947 316.710,137.408 316.400,137.593 316.400 C 138.108 316.400,142.000 312.306,142.000 311.765 C 142.000 311.502,142.356 310.503,142.791 309.544 C 145.144 304.360,140.996 296.820,134.736 294.900 C 131.725 293.977,131.570 293.956,130.200 294.286 M293.200 294.294 C 291.235 294.528,287.781 295.795,286.669 296.690 C 286.047 297.190,285.372 297.600,285.169 297.600 C 284.966 297.600,284.800 297.811,284.800 298.069 C 284.800 298.326,284.503 298.865,284.139 299.267 C 282.383 301.208,280.641 308.800,281.953 308.800 C 282.146 308.800,282.500 309.565,282.738 310.500 C 283.171 312.199,286.419 316.400,287.300 316.400 C 287.540 316.400,288.085 316.715,288.510 317.100 C 289.630 318.113,297.923 318.134,298.931 317.126 C 299.302 316.756,299.955 316.341,300.382 316.206 C 301.387 315.887,303.600 313.820,303.600 313.201 C 303.600 312.938,303.998 312.164,304.485 311.481 C 305.640 309.859,306.002 303.606,305.034 302.000 C 304.703 301.450,304.200 300.550,303.916 300.000 C 303.422 299.043,302.783 298.361,300.732 296.600 C 299.325 295.393,295.027 294.077,293.200 294.294 " stroke="none" fill="#fbfbfb" fill-rule="evenodd"></path><path id="path2" d="M47.200 56.278 C 45.514 56.459,43.600 57.174,43.600 57.622 C 43.600 57.800,43.237 58.061,42.793 58.202 C 41.601 58.580,39.631 60.764,38.750 62.683 C 38.325 63.609,37.802 64.475,37.589 64.607 C 35.989 65.596,37.687 74.412,39.958 76.905 C 41.775 78.900,43.670 80.302,45.000 80.636 C 45.631 80.794,46.609 81.165,47.173 81.459 C 47.973 81.876,51.229 81.996,61.874 81.998 C 78.202 82.000,77.421 81.820,77.806 85.674 C 77.968 87.283,78.437 89.658,78.850 90.952 C 79.262 92.246,79.600 94.006,79.600 94.865 C 79.600 95.723,79.942 97.455,80.359 98.713 C 80.777 99.971,81.239 102.170,81.386 103.600 C 81.533 105.030,81.986 107.280,82.392 108.600 C 82.798 109.920,83.244 112.238,83.382 113.752 C 83.520 115.265,83.883 116.986,84.188 117.577 C 84.494 118.168,84.858 119.809,84.998 121.225 C 85.137 122.641,85.501 124.520,85.806 125.400 C 86.111 126.280,86.562 128.512,86.808 130.360 C 87.053 132.208,87.497 134.368,87.793 135.160 C 88.089 135.952,88.432 137.710,88.556 139.066 C 88.680 140.423,89.056 142.313,89.393 143.266 C 89.730 144.220,90.110 146.080,90.238 147.400 C 90.366 148.720,90.800 150.880,91.202 152.200 C 91.604 153.520,92.047 155.724,92.186 157.098 C 92.326 158.472,92.683 160.182,92.980 160.898 C 93.277 161.614,93.652 163.460,93.813 165.000 C 93.974 166.540,94.442 168.858,94.853 170.152 C 95.264 171.446,95.600 173.206,95.600 174.065 C 95.600 174.923,95.963 176.703,96.407 178.021 C 96.851 179.338,97.314 181.538,97.437 182.908 C 97.560 184.279,97.994 186.390,98.401 187.600 C 98.808 188.810,99.248 191.002,99.379 192.471 C 99.509 193.939,99.875 195.761,100.192 196.518 C 100.508 197.276,100.888 199.134,101.036 200.648 C 101.183 202.161,101.547 203.999,101.845 204.731 C 102.142 205.463,102.578 207.617,102.815 209.517 C 103.051 211.417,103.487 213.518,103.785 214.186 C 104.083 214.854,104.437 216.604,104.572 218.075 C 104.707 219.546,105.173 221.864,105.609 223.227 C 106.044 224.589,106.400 226.377,106.400 227.200 C 106.400 228.023,106.736 229.754,107.147 231.048 C 107.558 232.342,108.027 234.660,108.189 236.200 C 108.351 237.740,108.713 239.450,108.992 240.000 C 109.271 240.550,109.630 242.260,109.789 243.800 C 109.949 245.340,110.336 247.320,110.649 248.200 C 110.963 249.080,111.401 251.324,111.624 253.187 C 111.846 255.050,112.286 257.091,112.601 257.721 C 112.915 258.352,113.289 260.248,113.431 261.934 C 113.573 263.620,113.953 265.540,114.275 266.200 C 115.961 269.656,114.677 273.600,111.865 273.600 C 111.673 273.600,110.950 274.058,110.258 274.617 C 109.566 275.176,108.596 275.941,108.101 276.317 C 104.912 278.741,101.241 282.826,98.626 286.859 C 98.106 287.661,97.547 288.741,97.385 289.259 C 97.223 289.776,96.755 290.629,96.345 291.154 C 95.935 291.679,95.600 292.543,95.600 293.076 C 95.600 293.608,95.196 294.889,94.702 295.922 C 93.338 298.772,93.345 313.596,94.710 316.478 C 95.200 317.511,95.600 318.792,95.600 319.324 C 95.600 319.857,95.937 320.721,96.348 321.246 C 96.759 321.771,97.225 322.794,97.384 323.519 C 97.542 324.245,98.016 325.053,98.436 325.315 C 98.856 325.578,99.200 326.099,99.200 326.473 C 99.200 326.847,99.387 327.269,99.616 327.410 C 99.845 327.551,100.453 328.327,100.967 329.134 C 102.157 331.000,106.525 335.379,108.564 336.749 C 109.424 337.327,110.594 338.115,111.164 338.501 C 112.412 339.345,114.629 340.400,115.154 340.400 C 115.363 340.400,115.593 340.564,115.667 340.765 C 115.819 341.183,119.816 342.678,122.200 343.210 C 126.808 344.237,136.329 344.244,140.400 343.223 C 142.125 342.790,145.590 341.598,146.400 341.159 C 146.730 340.980,148.320 340.157,149.933 339.330 C 151.546 338.502,153.037 337.505,153.247 337.113 C 153.457 336.721,153.840 336.400,154.100 336.400 C 154.598 336.400,154.840 336.186,158.501 332.510 C 161.397 329.602,161.579 329.385,162.975 327.200 C 163.608 326.210,164.457 324.912,164.863 324.316 C 165.268 323.720,165.600 322.999,165.600 322.713 C 165.600 322.427,166.050 321.348,166.600 320.315 C 167.150 319.282,167.600 317.973,167.600 317.405 C 167.600 316.838,167.899 315.705,168.264 314.887 C 169.424 312.287,169.515 302.268,168.410 298.830 C 167.927 297.328,167.592 295.672,167.666 295.149 L 167.800 294.200 212.500 294.098 L 257.200 293.997 257.200 295.549 C 257.200 296.404,256.893 297.799,256.517 298.651 C 255.548 300.850,255.508 311.523,256.461 313.641 C 256.818 314.433,257.231 315.873,257.380 316.841 C 257.528 317.808,257.905 319.140,258.218 319.800 C 258.530 320.460,259.066 321.630,259.409 322.400 C 260.529 324.918,261.523 326.638,262.167 327.173 C 262.515 327.462,262.800 327.944,262.800 328.246 C 262.800 328.547,263.160 329.018,263.600 329.293 C 264.040 329.568,264.404 329.974,264.409 330.196 C 264.418 330.601,268.509 334.800,268.894 334.800 C 269.007 334.800,269.887 335.536,270.849 336.435 C 271.812 337.334,273.095 338.251,273.700 338.474 C 274.305 338.696,274.800 339.027,274.800 339.208 C 274.800 339.390,275.475 339.755,276.300 340.020 C 277.125 340.284,278.070 340.724,278.400 340.997 C 278.730 341.269,279.540 341.617,280.200 341.770 C 280.860 341.922,282.120 342.377,283.000 342.781 C 284.319 343.387,290.218 344.071,294.200 344.081 C 297.231 344.088,302.945 343.357,304.258 342.793 C 305.170 342.402,306.520 341.950,307.258 341.789 C 307.996 341.628,309.029 341.159,309.554 340.748 C 310.079 340.337,310.844 340.000,311.254 340.000 C 311.664 340.000,312.360 339.640,312.800 339.200 C 313.240 338.760,313.771 338.400,313.979 338.400 C 314.188 338.400,314.844 337.950,315.438 337.400 C 316.031 336.850,316.646 336.400,316.804 336.400 C 317.319 336.400,323.502 330.227,324.016 329.200 C 324.292 328.650,324.761 328.056,325.058 327.880 C 325.356 327.704,325.600 327.325,325.600 327.039 C 325.600 326.752,326.050 326.031,326.600 325.438 C 327.150 324.844,327.600 323.946,327.600 323.441 C 327.600 322.937,327.938 322.218,328.352 321.844 C 328.765 321.469,329.219 320.439,329.361 319.553 C 329.503 318.668,329.897 317.519,330.238 316.999 C 331.605 314.912,331.911 301.703,330.708 296.707 C 330.105 294.203,330.038 294.235,336.332 293.968 C 341.798 293.736,345.600 292.424,345.600 290.772 C 345.600 290.567,345.870 290.400,346.200 290.400 C 346.530 290.400,346.800 290.220,346.800 290.000 C 346.800 289.780,347.174 289.226,347.631 288.769 C 348.503 287.897,349.933 284.302,350.281 282.108 C 350.463 280.961,350.072 279.336,348.686 275.474 C 348.102 273.848,344.358 270.104,342.978 269.766 C 342.330 269.607,341.678 269.290,341.530 269.063 C 340.931 268.146,332.929 268.066,238.929 268.034 L 141.258 268.000 141.008 265.700 C 140.870 264.435,140.407 262.307,139.979 260.972 C 139.551 259.636,139.200 257.786,139.200 256.859 C 139.200 255.933,138.848 254.130,138.418 252.853 C 137.988 251.576,137.512 249.287,137.362 247.766 C 137.211 246.245,136.753 244.138,136.344 243.085 C 135.935 242.032,135.600 240.547,135.600 239.785 L 135.600 238.400 230.900 238.391 C 324.983 238.383,326.222 238.372,327.944 237.591 C 328.903 237.156,329.948 236.800,330.267 236.800 C 331.401 236.800,335.141 233.494,335.922 231.800 C 336.125 231.360,336.676 230.170,337.146 229.156 C 337.616 228.141,338.116 226.161,338.256 224.756 C 338.397 223.350,338.743 221.740,339.026 221.177 C 339.309 220.615,339.742 218.635,339.989 216.777 C 340.236 214.920,340.679 212.860,340.974 212.200 C 341.270 211.540,341.640 209.740,341.798 208.200 C 341.955 206.660,342.342 204.900,342.658 204.289 C 342.974 203.678,343.341 201.968,343.473 200.489 C 343.606 199.010,344.025 196.990,344.405 196.000 C 344.786 195.010,345.229 192.940,345.390 191.400 C 345.552 189.860,345.926 188.131,346.222 187.558 C 346.518 186.985,346.939 185.095,347.158 183.358 C 347.376 181.621,347.815 179.570,348.133 178.800 C 348.451 178.030,348.842 176.247,349.002 174.837 C 349.162 173.428,349.529 171.710,349.817 171.020 C 350.106 170.330,350.472 168.603,350.630 167.183 C 350.789 165.762,351.252 163.627,351.660 162.437 C 352.067 161.248,352.400 159.606,352.400 158.789 C 352.400 157.973,352.755 156.194,353.188 154.837 C 353.622 153.480,354.087 151.431,354.221 150.285 C 354.356 149.138,354.709 147.552,355.006 146.760 C 355.302 145.968,355.746 143.855,355.991 142.065 C 356.236 140.274,356.676 138.222,356.968 137.505 C 357.260 136.787,357.625 135.038,357.779 133.617 C 357.933 132.197,358.322 130.404,358.644 129.632 C 358.966 128.861,359.339 127.144,359.472 125.815 C 359.605 124.487,360.024 122.590,360.403 121.600 C 360.782 120.610,361.217 118.502,361.369 116.916 C 361.521 115.330,361.944 113.440,362.310 112.716 C 363.626 110.109,363.380 100.800,361.995 100.800 C 361.825 100.800,361.564 100.305,361.413 99.700 C 361.144 98.619,358.300 95.600,357.550 95.600 C 357.340 95.600,356.620 95.195,355.950 94.700 L 354.733 93.800 231.067 93.705 C 139.064 93.634,107.176 93.492,106.526 93.151 C 105.809 92.775,105.607 92.217,105.401 90.046 C 105.263 88.591,104.815 86.410,104.405 85.200 C 103.996 83.990,103.567 81.830,103.453 80.400 C 103.339 78.970,102.984 77.170,102.663 76.400 C 102.342 75.630,101.885 73.403,101.648 71.451 C 101.411 69.499,101.049 67.699,100.844 67.451 C 100.639 67.203,100.346 66.280,100.192 65.400 C 99.813 63.223,96.481 58.400,95.357 58.400 C 95.189 58.400,94.657 58.029,94.175 57.577 C 93.614 57.050,92.381 56.621,90.749 56.385 C 88.369 56.041,50.280 55.948,47.200 56.278 M93.200 57.800 C 93.945 58.350,94.681 58.800,94.835 58.800 C 97.182 58.800,100.159 65.672,101.420 74.000 C 101.703 75.870,102.219 78.188,102.567 79.150 C 102.915 80.113,103.204 81.553,103.210 82.350 C 103.215 83.148,103.413 84.520,103.650 85.400 C 103.888 86.280,104.387 88.395,104.760 90.099 C 105.133 91.804,105.616 93.376,105.834 93.594 C 106.093 93.853,149.101 94.026,230.215 94.095 L 354.200 94.200 355.736 95.200 C 361.981 99.266,363.898 104.273,361.938 111.400 C 361.206 114.065,360.171 118.933,359.559 122.600 C 359.338 123.920,358.816 126.170,358.399 127.600 C 357.982 129.030,357.539 131.100,357.415 132.200 C 357.291 133.300,356.832 135.341,356.395 136.736 C 355.958 138.130,355.600 139.862,355.600 140.584 C 355.600 141.305,355.264 142.954,354.854 144.248 C 354.443 145.542,353.976 147.680,353.815 149.000 C 353.654 150.320,353.290 151.957,353.008 152.637 C 352.725 153.318,352.363 155.028,352.205 156.437 C 352.046 157.847,351.575 159.984,351.158 161.186 C 350.741 162.389,350.400 163.924,350.400 164.599 C 350.400 165.274,350.124 166.810,349.786 168.013 C 349.449 169.216,348.931 171.640,348.636 173.400 C 348.341 175.160,347.918 177.053,347.695 177.607 C 347.473 178.161,347.084 179.947,346.831 181.575 C 346.578 183.204,346.128 185.361,345.830 186.368 C 345.533 187.376,345.084 189.538,344.833 191.172 C 344.583 192.807,344.208 194.349,344.001 194.599 C 343.794 194.848,343.520 196.121,343.393 197.426 C 343.267 198.732,342.825 200.970,342.413 202.400 C 342.001 203.830,341.495 206.080,341.288 207.400 C 341.082 208.720,340.625 210.970,340.274 212.400 C 339.653 214.927,339.400 216.123,338.156 222.400 C 336.768 229.408,335.384 232.354,332.323 234.814 C 329.195 237.327,335.177 237.187,230.908 237.194 L 135.615 237.200 135.355 238.238 C 135.010 239.611,135.445 243.378,136.193 245.493 C 136.522 246.425,136.896 248.225,137.024 249.493 C 137.151 250.762,137.504 252.520,137.808 253.400 C 138.112 254.280,138.558 256.488,138.800 258.306 C 139.042 260.125,139.501 262.352,139.820 263.256 C 140.139 264.161,140.400 265.430,140.400 266.077 C 140.400 269.106,129.199 268.800,239.978 268.800 L 338.729 268.800 341.064 269.675 C 351.166 273.460,352.165 287.168,342.709 292.238 C 340.764 293.280,340.165 293.385,335.000 293.584 C 328.719 293.826,328.373 294.041,329.807 296.814 C 331.243 299.591,331.262 313.075,329.834 315.800 C 329.488 316.460,329.204 317.348,329.202 317.774 C 329.201 318.199,328.854 319.279,328.430 320.174 C 328.007 321.068,327.377 322.430,327.031 323.200 C 326.685 323.970,326.086 325.066,325.701 325.636 C 325.315 326.206,324.511 327.409,323.912 328.309 C 321.647 331.717,312.379 339.600,310.638 339.600 C 310.404 339.600,309.310 340.035,308.206 340.566 C 301.924 343.589,288.094 344.524,283.649 342.225 C 282.984 341.881,282.098 341.600,281.679 341.600 C 281.261 341.600,280.073 341.150,279.038 340.600 C 278.004 340.050,276.995 339.600,276.797 339.600 C 276.380 339.600,274.187 338.206,271.624 336.312 C 269.584 334.805,264.888 330.197,264.000 328.831 C 263.670 328.323,263.115 327.523,262.768 327.054 C 261.058 324.745,258.084 318.118,257.763 315.899 C 257.628 314.964,257.266 313.312,256.959 312.227 C 256.212 309.589,256.245 303.162,257.021 300.184 C 257.363 298.873,257.678 296.900,257.721 295.800 L 257.800 293.800 212.843 293.698 C 183.158 293.631,167.722 293.733,167.402 293.999 C 167.023 294.312,167.041 295.080,167.479 297.500 C 168.741 304.457,168.934 306.791,168.489 309.735 C 167.833 314.079,166.867 318.345,166.270 319.534 C 165.976 320.120,165.210 321.680,164.567 323.000 C 163.085 326.048,159.855 330.512,157.569 332.673 C 156.006 334.151,155.170 334.889,152.795 336.890 C 152.461 337.170,151.741 337.631,151.195 337.912 C 150.648 338.194,149.660 338.714,149.000 339.067 C 144.414 341.522,140.262 342.797,135.469 343.223 C 130.562 343.658,123.020 343.141,121.298 342.251 C 120.606 341.893,119.698 341.600,119.279 341.600 C 118.861 341.600,117.673 341.150,116.638 340.600 C 115.604 340.050,114.591 339.600,114.387 339.600 C 112.805 339.600,105.441 333.561,102.218 329.622 C 95.168 321.005,91.843 305.317,95.239 296.701 C 95.658 295.639,96.000 294.473,96.000 294.109 C 96.000 293.154,99.421 286.408,100.600 285.038 C 101.150 284.399,101.601 283.769,101.603 283.638 C 101.621 282.331,110.226 275.063,113.704 273.417 C 115.727 272.459,116.315 268.031,114.796 265.193 C 114.569 264.769,114.128 262.717,113.815 260.632 C 113.502 258.547,112.965 256.016,112.623 255.007 C 112.280 253.998,112.000 252.588,112.000 251.873 C 112.000 251.159,111.729 249.590,111.398 248.387 C 111.067 247.184,110.531 244.580,110.207 242.600 C 109.882 240.620,109.343 238.116,109.008 237.036 C 108.674 235.956,108.398 234.426,108.395 233.636 C 108.392 232.846,108.053 231.120,107.642 229.800 C 107.230 228.480,106.762 226.230,106.601 224.800 C 106.440 223.370,106.152 221.902,105.960 221.538 C 105.769 221.173,105.340 219.103,105.008 216.938 C 104.675 214.772,104.140 212.280,103.819 211.400 C 103.498 210.520,103.227 209.029,103.218 208.087 C 103.208 207.145,102.858 205.345,102.441 204.087 C 102.023 202.829,101.559 200.630,101.410 199.200 C 101.260 197.770,100.801 195.430,100.389 194.000 C 99.977 192.570,99.458 190.230,99.237 188.800 C 98.723 185.481,97.697 180.262,97.153 178.200 C 96.920 177.320,96.552 175.520,96.334 174.200 C 96.116 172.880,95.664 170.630,95.329 169.200 C 94.995 167.770,94.475 165.160,94.174 163.400 C 93.874 161.640,93.351 159.216,93.014 158.013 C 92.676 156.810,92.400 155.139,92.400 154.300 C 92.400 153.461,92.140 152.153,91.823 151.393 C 91.505 150.633,91.040 148.523,90.788 146.705 C 90.537 144.887,90.088 142.680,89.790 141.800 C 89.492 140.920,89.053 138.760,88.815 137.000 C 88.576 135.240,88.123 133.080,87.808 132.200 C 87.493 131.320,87.227 129.836,87.218 128.902 C 87.208 127.967,86.850 126.167,86.423 124.902 C 85.996 123.636,85.530 121.520,85.388 120.200 C 85.246 118.880,84.796 116.630,84.388 115.200 C 83.980 113.770,83.466 111.340,83.246 109.800 C 82.735 106.223,81.718 101.161,80.474 96.000 C 80.235 95.010,79.869 93.120,79.660 91.800 C 79.451 90.480,79.091 88.680,78.860 87.800 C 78.628 86.920,78.335 85.390,78.208 84.400 C 77.796 81.195,78.924 81.427,62.515 81.165 C 47.097 80.918,45.752 80.769,43.240 79.027 C 41.515 77.832,39.207 75.346,39.186 74.661 C 39.179 74.408,38.825 73.480,38.400 72.600 C 36.119 67.878,38.782 61.144,44.172 58.000 L 46.200 56.818 69.022 56.809 L 91.845 56.800 93.200 57.800 M126.715 294.533 C 118.280 298.411,116.138 308.644,122.368 315.300 C 122.934 315.905,123.566 316.400,123.773 316.400 C 123.979 316.400,124.541 316.769,125.021 317.219 C 125.562 317.728,126.899 318.206,128.546 318.479 C 141.613 320.644,149.106 306.279,139.732 297.037 C 138.707 296.027,137.670 295.200,137.428 295.200 C 137.186 295.200,136.316 294.840,135.496 294.400 C 133.423 293.289,129.285 293.352,126.715 294.533 M290.021 294.174 C 289.759 294.490,289.051 294.857,288.447 294.990 C 286.843 295.342,283.002 299.108,282.425 300.894 C 282.159 301.716,281.775 302.492,281.571 302.618 C 280.858 303.059,281.171 308.883,282.000 310.600 C 282.425 311.480,282.779 312.383,282.786 312.607 C 282.808 313.264,286.373 316.800,287.014 316.800 C 287.336 316.800,287.600 316.958,287.600 317.151 C 287.600 317.981,290.354 318.588,294.044 318.570 C 299.027 318.546,301.078 317.377,304.864 312.399 C 307.807 308.530,305.972 299.714,301.534 296.405 C 298.022 293.787,291.407 292.505,290.021 294.174 M134.736 294.900 C 140.996 296.820,145.144 304.360,142.791 309.544 C 142.356 310.503,142.000 311.502,142.000 311.765 C 142.000 312.306,138.108 316.400,137.593 316.400 C 137.408 316.400,136.947 316.710,136.569 317.088 C 135.704 317.953,128.774 318.338,127.200 317.608 C 124.428 316.323,121.600 314.171,121.600 313.347 C 121.600 313.148,121.150 312.323,120.600 311.514 C 119.051 309.235,119.109 302.967,120.700 300.622 C 123.049 297.157,125.747 295.358,130.200 294.286 C 131.570 293.956,131.725 293.977,134.736 294.900 M298.200 295.273 C 299.080 295.563,300.219 296.160,300.732 296.600 C 302.783 298.361,303.422 299.043,303.916 300.000 C 304.200 300.550,304.703 301.450,305.034 302.000 C 306.002 303.606,305.640 309.859,304.485 311.481 C 303.998 312.164,303.600 312.938,303.600 313.201 C 303.600 313.820,301.387 315.887,300.382 316.206 C 299.955 316.341,299.302 316.756,298.931 317.126 C 297.923 318.134,289.630 318.113,288.510 317.100 C 288.085 316.715,287.540 316.400,287.300 316.400 C 286.419 316.400,283.171 312.199,282.738 310.500 C 282.500 309.565,282.146 308.800,281.953 308.800 C 280.641 308.800,282.383 301.208,284.139 299.267 C 284.503 298.865,284.800 298.326,284.800 298.069 C 284.800 297.811,284.966 297.600,285.169 297.600 C 285.372 297.600,286.047 297.190,286.669 296.690 C 287.781 295.795,291.235 294.528,293.200 294.294 C 294.275 294.166,295.662 294.438,298.200 295.273 " stroke="none" fill="#9cac9a" fill-rule="evenodd"></path><path id="path3" d="M167.900 94.300 C 201.615 94.356,256.785 94.356,290.500 94.300 C 324.215 94.244,296.630 94.197,229.200 94.197 C 161.770 94.197,134.185 94.244,167.900 94.300 M362.520 106.000 C 362.520 107.210,362.595 107.705,362.687 107.100 C 362.778 106.495,362.778 105.505,362.687 104.900 C 362.595 104.295,362.520 104.790,362.520 106.000 M183.300 237.100 C 209.645 237.157,252.755 237.157,279.100 237.100 C 305.445 237.043,283.890 236.997,231.200 236.997 C 178.510 236.997,156.955 237.043,183.300 237.100 M190.100 293.500 C 202.365 293.559,222.435 293.559,234.700 293.500 C 246.965 293.441,236.930 293.393,212.400 293.393 C 187.870 293.393,177.835 293.441,190.100 293.500 M333.500 293.495 C 334.655 293.576,336.545 293.576,337.700 293.495 C 338.855 293.414,337.910 293.348,335.600 293.348 C 333.290 293.348,332.345 293.414,333.500 293.495 M329.228 296.200 C 329.228 296.420,329.486 297.050,329.800 297.600 C 330.114 298.150,330.372 298.420,330.372 298.200 C 330.372 297.980,330.114 297.350,329.800 296.800 C 329.486 296.250,329.228 295.980,329.228 296.200 M330.493 300.800 C 330.493 301.570,330.575 301.885,330.676 301.500 C 330.776 301.115,330.776 300.485,330.676 300.100 C 330.575 299.715,330.493 300.030,330.493 300.800 M94.140 306.000 C 94.140 307.870,94.209 308.635,94.293 307.700 C 94.377 306.765,94.377 305.235,94.293 304.300 C 94.209 303.365,94.140 304.130,94.140 306.000 M280.931 306.200 C 280.933 307.740,281.005 308.321,281.092 307.491 C 281.179 306.661,281.177 305.401,281.089 304.691 C 281.000 303.981,280.929 304.660,280.931 306.200 M168.493 305.200 C 168.493 305.970,168.575 306.285,168.676 305.900 C 168.776 305.515,168.776 304.885,168.676 304.500 C 168.575 304.115,168.493 304.430,168.493 305.200 M168.501 308.200 C 168.505 309.080,168.587 309.393,168.683 308.895 C 168.779 308.398,168.775 307.678,168.675 307.295 C 168.575 306.913,168.496 307.320,168.501 308.200 M124.100 343.076 C 124.485 343.176,125.115 343.176,125.500 343.076 C 125.885 342.975,125.570 342.893,124.800 342.893 C 124.030 342.893,123.715 342.975,124.100 343.076 M299.505 343.083 C 300.002 343.179,300.722 343.175,301.105 343.075 C 301.487 342.975,301.080 342.896,300.200 342.901 C 299.320 342.905,299.007 342.987,299.505 343.083 M130.505 343.487 C 131.114 343.579,132.014 343.577,132.505 343.482 C 132.997 343.387,132.500 343.311,131.400 343.314 C 130.300 343.317,129.897 343.395,130.505 343.487 M292.905 343.487 C 293.514 343.579,294.414 343.577,294.905 343.482 C 295.397 343.387,294.900 343.311,293.800 343.314 C 292.700 343.317,292.297 343.395,292.905 343.487 " stroke="none" fill="#8ca28a" fill-rule="evenodd"></path><path id="path4" d="M57.700 57.100 C 63.805 57.162,73.795 57.162,79.900 57.100 C 86.005 57.038,81.010 56.987,68.800 56.987 C 56.590 56.987,51.595 57.038,57.700 57.100 M44.456 58.013 C 43.936 58.446,43.698 58.800,43.927 58.800 C 44.156 58.800,44.584 58.559,44.879 58.264 C 45.173 57.970,45.681 57.624,46.007 57.496 C 46.526 57.292,46.526 57.261,46.000 57.245 C 45.670 57.235,44.975 57.581,44.456 58.013 M92.509 58.000 C 93.069 58.440,93.678 58.794,93.863 58.787 C 94.339 58.768,92.400 57.200,91.902 57.200 C 91.676 57.200,91.950 57.560,92.509 58.000 M42.400 59.327 C 41.511 60.071,39.420 62.400,39.642 62.400 C 39.747 62.400,40.628 61.590,41.600 60.600 C 43.287 58.881,43.679 58.258,42.400 59.327 M95.365 59.800 C 95.875 60.350,96.437 60.800,96.616 60.800 C 96.794 60.800,96.517 60.350,96.000 59.800 C 95.483 59.250,94.921 58.800,94.749 58.800 C 94.578 58.800,94.855 59.250,95.365 59.800 M97.600 62.676 C 97.600 62.896,97.960 63.402,98.400 63.800 C 98.840 64.198,99.200 64.344,99.200 64.124 C 99.200 63.904,98.840 63.398,98.400 63.000 C 97.960 62.602,97.600 62.456,97.600 62.676 M38.245 65.687 C 37.397 67.643,37.444 69.827,38.378 71.800 C 38.795 72.680,39.143 73.130,39.153 72.800 C 39.163 72.470,38.914 71.750,38.600 71.200 C 37.835 69.862,37.851 67.191,38.630 66.079 C 38.976 65.584,39.176 64.959,39.075 64.690 C 38.973 64.420,38.599 64.869,38.245 65.687 M99.301 66.200 C 99.305 67.080,99.387 67.393,99.483 66.895 C 99.579 66.398,99.575 65.678,99.475 65.295 C 99.375 64.913,99.296 65.320,99.301 66.200 M99.762 69.000 C 99.972 70.548,101.169 73.652,101.151 72.600 C 101.144 72.160,100.792 70.900,100.369 69.800 C 99.826 68.387,99.648 68.152,99.762 69.000 M39.225 74.045 C 39.192 74.893,41.402 77.661,42.632 78.313 C 43.164 78.595,43.600 79.000,43.600 79.213 C 43.600 79.426,43.825 79.594,44.100 79.587 C 44.375 79.580,44.060 79.127,43.400 78.580 C 42.740 78.032,42.047 77.426,41.860 77.232 C 40.539 75.864,39.913 75.044,39.605 74.280 C 39.364 73.681,39.243 73.606,39.225 74.045 M101.264 76.200 C 101.244 77.080,101.575 78.520,102.000 79.400 C 102.835 81.129,103.093 80.770,102.341 78.926 C 102.089 78.307,101.751 77.080,101.591 76.200 L 101.300 74.600 101.264 76.200 M44.841 79.749 C 45.731 80.734,51.870 81.200,63.946 81.200 C 74.771 81.200,76.752 81.291,77.511 81.823 C 78.000 82.165,78.400 82.260,78.400 82.033 C 78.400 80.674,76.336 80.464,61.379 80.295 C 53.251 80.203,46.150 79.983,45.600 79.805 C 45.050 79.627,44.709 79.602,44.841 79.749 M102.914 83.000 C 102.917 84.100,102.995 84.503,103.087 83.895 C 103.179 83.286,103.177 82.386,103.082 81.895 C 102.987 81.403,102.911 81.900,102.914 83.000 M78.426 85.027 C 78.412 85.482,78.695 86.832,79.055 88.027 C 79.415 89.222,79.841 91.190,80.002 92.400 L 80.295 94.600 80.348 92.526 C 80.376 91.385,80.206 89.945,79.969 89.326 C 79.732 88.707,79.294 87.300,78.995 86.200 C 78.697 85.100,78.441 84.572,78.426 85.027 M103.246 86.424 C 103.221 86.986,103.464 87.796,103.787 88.224 C 104.254 88.840,104.377 88.872,104.387 88.380 C 104.394 88.039,104.237 87.589,104.039 87.380 C 103.840 87.171,103.591 86.640,103.485 86.200 C 103.330 85.555,103.284 85.598,103.246 86.424 M104.828 92.667 C 104.767 93.675,105.325 94.399,106.143 94.372 C 106.946 94.346,106.951 94.325,106.230 94.042 C 105.806 93.876,105.324 93.394,105.158 92.970 C 104.992 92.547,104.844 92.410,104.828 92.667 M355.144 95.613 C 355.664 96.046,356.302 96.400,356.563 96.400 C 357.437 96.400,360.158 99.583,361.269 101.904 C 361.873 103.167,362.375 103.990,362.384 103.733 C 362.445 101.968,357.969 96.000,356.584 96.000 C 356.317 96.000,355.874 95.730,355.600 95.400 C 355.326 95.070,354.899 94.806,354.651 94.813 C 354.403 94.821,354.625 95.181,355.144 95.613 M80.400 95.737 C 80.400 95.911,80.598 96.423,80.840 96.875 C 81.082 97.327,81.435 98.530,81.623 99.549 L 81.966 101.400 81.848 99.360 C 81.755 97.773,80.400 94.382,80.400 95.737 M82.406 105.020 C 82.409 105.229,82.687 106.120,83.024 107.000 L 83.636 108.600 83.432 107.035 C 83.256 105.674,82.389 103.974,82.406 105.020 M362.046 108.654 C 362.021 109.124,361.731 110.024,361.402 110.654 C 361.074 111.284,360.828 112.430,360.857 113.200 C 360.895 114.238,360.950 114.341,361.069 113.600 C 361.156 113.050,361.506 111.838,361.845 110.907 C 362.184 109.975,362.378 108.895,362.277 108.507 C 362.129 107.939,362.084 107.969,362.046 108.654 M83.714 110.600 C 83.717 111.700,83.795 112.103,83.887 111.495 C 83.979 110.886,83.977 109.986,83.882 109.495 C 83.787 109.003,83.711 109.500,83.714 110.600 M84.002 113.074 C 84.001 113.335,84.195 114.055,84.433 114.674 C 84.672 115.293,85.027 116.520,85.223 117.400 C 85.574 118.976,85.577 118.970,85.419 117.000 C 85.281 115.279,84.009 111.754,84.002 113.074 M359.665 118.617 C 359.409 119.178,359.209 120.034,359.219 120.519 C 359.231 121.081,359.459 120.771,359.847 119.661 C 360.521 117.737,360.395 117.014,359.665 118.617 M112.580 120.033 C 112.095 120.818,112.821 126.372,113.455 126.727 C 113.878 126.964,114.107 128.111,114.274 130.828 C 114.420 133.211,114.713 134.840,115.071 135.252 C 115.395 135.626,115.817 137.590,116.059 139.852 C 116.305 142.150,116.720 144.069,117.053 144.445 C 117.412 144.850,117.704 146.406,117.841 148.645 C 117.992 151.115,118.256 152.418,118.705 152.915 C 119.157 153.415,119.427 154.766,119.600 157.400 C 119.787 160.240,120.028 161.368,120.579 161.977 C 121.144 162.601,121.357 163.667,121.513 166.650 C 121.672 169.699,121.872 170.672,122.458 171.258 C 123.053 171.853,123.200 172.614,123.200 175.106 C 123.200 177.476,123.395 178.575,124.022 179.746 C 124.589 180.803,124.915 182.357,125.070 184.740 C 125.209 186.890,125.496 188.362,125.825 188.628 C 126.144 188.885,126.523 190.692,126.776 193.155 C 127.029 195.616,127.420 197.477,127.754 197.811 C 128.109 198.166,128.415 199.816,128.597 202.357 C 128.786 204.992,129.055 206.412,129.391 206.541 C 129.671 206.649,130.025 207.741,130.179 208.968 L 130.458 211.200 222.179 211.200 L 313.900 211.200 314.150 209.950 C 314.288 209.263,314.400 208.043,314.400 207.239 C 314.400 206.435,314.697 205.354,315.060 204.836 C 315.479 204.238,315.847 202.486,316.068 200.047 C 316.281 197.692,316.621 196.045,316.945 195.800 C 317.256 195.564,317.589 194.085,317.754 192.200 C 317.945 190.020,318.234 188.848,318.662 188.523 C 319.114 188.180,319.372 186.960,319.583 184.163 C 319.791 181.413,320.054 180.149,320.485 179.835 C 320.926 179.512,321.141 178.393,321.267 175.760 C 321.409 172.792,321.601 171.925,322.320 171.011 C 323.028 170.111,323.200 169.368,323.200 167.207 C 323.200 165.097,323.371 164.325,324.000 163.600 C 324.539 162.979,324.808 162.077,324.824 160.839 C 324.858 158.210,325.413 155.163,325.914 154.853 C 326.150 154.707,326.466 152.971,326.617 150.994 C 326.785 148.786,327.139 147.014,327.535 146.400 C 327.911 145.818,328.281 144.086,328.422 142.254 C 328.594 140.028,328.845 139.007,329.280 138.763 C 329.728 138.512,329.973 137.411,330.182 134.709 C 330.369 132.291,330.682 130.763,331.080 130.319 C 331.483 129.868,331.790 128.324,331.984 125.758 C 332.203 122.855,332.443 121.757,332.938 121.396 C 333.302 121.129,333.600 120.617,333.600 120.256 C 333.600 119.442,113.082 119.220,112.580 120.033 M85.663 121.200 C 85.653 121.750,85.985 123.010,86.400 124.000 C 86.815 124.990,87.165 125.473,87.178 125.074 C 87.190 124.674,86.989 123.954,86.731 123.474 C 86.472 122.993,86.131 122.060,85.971 121.400 C 85.711 120.321,85.680 120.301,85.663 121.200 M358.914 123.400 C 358.917 124.500,358.995 124.903,359.087 124.295 C 359.179 123.686,359.177 122.786,359.082 122.295 C 358.987 121.803,358.911 122.300,358.914 123.400 M87.314 128.200 C 87.317 129.300,87.395 129.703,87.487 129.095 C 87.579 128.486,87.577 127.586,87.482 127.095 C 87.387 126.603,87.311 127.100,87.314 128.200 M357.452 127.700 C 357.319 128.195,357.231 129.230,357.256 130.000 L 357.300 131.400 357.592 129.800 C 357.753 128.920,358.019 127.885,358.185 127.500 C 358.356 127.102,358.315 126.800,358.089 126.800 C 357.872 126.800,357.585 127.205,357.452 127.700 M87.617 131.126 C 87.608 131.416,87.791 132.009,88.024 132.445 C 88.257 132.881,88.598 133.994,88.780 134.919 L 89.112 136.600 89.139 135.000 C 89.154 134.120,88.822 132.770,88.400 132.000 C 87.978 131.230,87.626 130.837,87.617 131.126 M356.834 133.400 C 356.801 133.840,356.510 134.549,356.187 134.976 C 355.864 135.404,355.610 136.214,355.622 136.776 C 355.639 137.582,355.813 137.383,356.439 135.838 C 356.877 134.760,357.158 133.590,357.064 133.238 C 356.938 132.769,356.877 132.812,356.834 133.400 M355.309 140.000 C 355.309 140.990,355.387 141.395,355.482 140.900 C 355.578 140.405,355.578 139.595,355.482 139.100 C 355.387 138.605,355.309 139.010,355.309 140.000 M89.807 141.000 C 89.985 141.440,90.352 143.150,90.623 144.800 C 90.988 147.021,91.122 147.384,91.140 146.200 C 91.174 143.997,90.599 141.231,89.989 140.668 C 89.587 140.297,89.550 140.366,89.807 141.000 M354.252 143.746 C 353.894 144.502,353.621 145.724,353.646 146.460 C 353.673 147.232,353.765 147.461,353.864 147.000 C 353.959 146.560,354.317 145.424,354.660 144.476 C 355.426 142.361,355.147 141.861,354.252 143.746 M91.216 148.726 C 91.207 149.016,91.408 149.641,91.662 150.116 C 91.917 150.592,92.267 151.975,92.442 153.190 L 92.759 155.400 92.623 152.958 C 92.508 150.895,91.264 147.154,91.216 148.726 M352.388 152.232 C 352.149 152.860,351.882 154.550,351.794 155.987 L 351.635 158.600 352.004 156.000 C 352.207 154.570,352.589 152.995,352.854 152.501 C 353.118 152.006,353.219 151.486,353.078 151.345 C 352.938 151.204,352.627 151.603,352.388 152.232 M93.219 158.000 C 93.215 158.110,93.467 159.010,93.779 160.000 C 94.297 161.643,94.349 161.693,94.373 160.576 C 94.388 159.904,94.136 159.004,93.813 158.576 C 93.490 158.149,93.222 157.890,93.219 158.000 M350.865 160.045 C 350.572 160.514,350.267 161.911,350.187 163.149 C 350.050 165.264,350.059 165.291,350.339 163.600 C 350.503 162.610,350.865 161.385,351.144 160.878 C 351.807 159.674,351.558 158.934,350.865 160.045 M94.454 164.036 C 94.425 164.606,94.684 165.956,95.032 167.036 C 95.380 168.116,95.805 170.080,95.977 171.400 L 96.291 173.800 96.345 171.702 C 96.376 170.536,96.055 168.580,95.623 167.302 C 95.196 166.036,94.770 164.550,94.678 164.000 L 94.509 163.000 94.454 164.036 M348.832 168.739 C 348.595 169.184,348.412 170.054,348.427 170.674 C 348.449 171.623,348.541 171.519,349.009 170.016 C 349.612 168.082,349.524 167.447,348.832 168.739 M348.046 174.256 C 348.021 174.727,347.644 175.897,347.209 176.856 C 346.774 177.815,346.441 179.320,346.469 180.200 C 346.510 181.494,346.549 181.571,346.674 180.600 C 346.758 179.940,347.198 178.380,347.650 177.134 C 348.102 175.888,348.387 174.538,348.282 174.134 C 348.122 173.512,348.086 173.531,348.046 174.256 M96.422 174.674 C 96.410 174.935,96.607 175.655,96.859 176.274 C 97.111 176.893,97.449 178.120,97.609 179.000 L 97.900 180.600 97.928 179.200 C 97.952 177.950,96.477 173.514,96.422 174.674 M98.093 182.000 C 98.093 182.770,98.175 183.085,98.276 182.700 C 98.376 182.315,98.376 181.685,98.276 181.300 C 98.175 180.915,98.093 181.230,98.093 182.000 M345.460 185.140 C 345.065 186.240,344.817 187.649,344.911 188.270 C 345.080 189.399,345.080 189.399,345.140 188.149 C 345.173 187.461,345.479 186.229,345.821 185.412 C 346.162 184.594,346.383 183.749,346.311 183.532 C 346.239 183.316,345.856 184.040,345.460 185.140 M98.605 184.400 C 98.746 184.950,99.009 185.940,99.189 186.600 L 99.518 187.800 99.545 186.600 C 99.560 185.940,99.297 184.950,98.961 184.400 L 98.350 183.400 98.605 184.400 M99.652 189.434 C 99.624 190.333,99.946 192.133,100.370 193.434 C 100.793 194.735,101.222 196.250,101.323 196.800 C 101.423 197.350,101.449 196.843,101.379 195.672 C 101.309 194.502,101.036 193.285,100.773 192.967 C 100.509 192.649,100.161 191.357,99.999 190.095 C 99.738 188.061,99.699 187.986,99.652 189.434 M344.493 190.800 C 344.493 191.570,344.575 191.885,344.676 191.500 C 344.776 191.115,344.776 190.485,344.676 190.100 C 344.575 189.715,344.493 190.030,344.493 190.800 M343.632 193.139 C 343.395 193.584,343.209 194.454,343.219 195.074 C 343.236 196.057,343.315 195.980,343.847 194.461 C 344.493 192.617,344.358 191.784,343.632 193.139 M342.909 198.000 C 342.909 198.990,342.987 199.395,343.082 198.900 C 343.178 198.405,343.178 197.595,343.082 197.100 C 342.987 196.605,342.909 197.010,342.909 198.000 M101.663 200.400 C 101.653 200.950,101.985 202.210,102.400 203.200 C 103.020 204.678,103.159 204.817,103.178 203.980 C 103.190 203.419,103.001 202.761,102.757 202.517 C 102.513 202.273,102.172 201.472,101.998 200.737 C 101.743 199.657,101.678 199.592,101.663 200.400 M341.852 201.746 C 341.494 202.502,341.221 203.724,341.246 204.460 L 341.292 205.800 341.591 204.400 C 341.755 203.630,342.100 202.480,342.356 201.845 C 343.024 200.189,342.628 200.111,341.852 201.746 M103.320 207.200 C 103.320 208.410,103.395 208.905,103.487 208.300 C 103.578 207.695,103.578 206.705,103.487 206.100 C 103.395 205.495,103.320 205.990,103.320 207.200 M340.300 209.311 C 339.915 210.245,339.613 211.367,339.629 211.804 C 339.645 212.242,340.007 211.616,340.434 210.414 C 341.375 207.762,341.276 206.945,340.300 209.311 M103.787 210.400 C 104.651 214.126,105.146 215.423,105.159 214.000 C 105.167 213.230,104.809 211.880,104.364 211.000 C 103.865 210.014,103.644 209.784,103.787 210.400 M339.314 214.600 C 339.317 215.700,339.395 216.103,339.487 215.495 C 339.579 214.886,339.577 213.986,339.482 213.495 C 339.387 213.003,339.311 213.500,339.314 214.600 M338.272 218.619 C 337.902 219.393,337.621 220.606,337.646 221.314 C 337.674 222.091,337.761 222.284,337.864 221.800 C 337.959 221.360,338.317 220.224,338.660 219.276 C 339.433 217.141,339.180 216.713,338.272 218.619 M105.600 219.781 C 105.600 219.881,105.784 220.376,106.010 220.881 C 106.235 221.387,106.588 222.880,106.794 224.200 L 107.170 226.600 106.990 224.090 C 106.773 221.065,106.436 219.600,105.957 219.600 C 105.760 219.600,105.600 219.682,105.600 219.781 M336.485 226.666 C 336.276 227.070,335.976 228.120,335.819 229.000 C 335.661 229.880,335.233 230.960,334.866 231.400 C 334.205 232.194,334.207 232.194,335.100 231.438 C 335.595 231.019,336.008 230.389,336.018 230.038 C 336.027 229.687,336.289 228.687,336.600 227.815 C 337.196 226.140,337.125 225.428,336.485 226.666 M107.202 227.474 C 107.201 227.735,107.411 228.455,107.668 229.074 C 107.926 229.693,108.273 231.190,108.441 232.400 L 108.745 234.600 108.615 232.000 C 108.511 229.910,107.211 225.747,107.202 227.474 M333.206 233.393 C 332.693 233.939,331.959 234.486,331.574 234.608 C 331.189 234.731,330.767 235.109,330.636 235.449 C 330.395 236.079,333.039 234.158,333.987 233.015 C 334.808 232.026,334.226 232.308,333.206 233.393 M108.841 235.492 C 108.818 235.982,109.059 237.062,109.376 237.892 C 109.693 238.721,110.032 239.760,110.130 240.200 C 110.257 240.772,110.320 240.679,110.354 239.874 C 110.379 239.254,110.189 238.354,109.931 237.874 C 109.672 237.393,109.331 236.460,109.171 235.800 C 108.946 234.865,108.873 234.797,108.841 235.492 M135.280 236.880 C 135.016 237.144,134.814 237.729,134.832 238.180 C 134.857 238.845,134.939 238.793,135.265 237.901 L 135.666 236.802 231.933 236.700 L 328.200 236.598 231.980 236.499 C 157.565 236.422,135.651 236.509,135.280 236.880 M134.914 241.400 C 134.917 242.500,134.995 242.903,135.087 242.295 C 135.179 241.686,135.177 240.786,135.082 240.295 C 134.987 239.803,134.911 240.300,134.914 241.400 M135.232 244.400 C 135.230 244.950,135.486 245.850,135.800 246.400 C 136.539 247.692,136.544 247.033,135.812 245.000 C 135.355 243.732,135.234 243.607,135.232 244.400 M110.822 245.326 C 110.810 245.726,110.987 246.401,111.214 246.827 C 111.442 247.253,111.780 248.636,111.966 249.901 L 112.302 252.200 112.329 250.200 C 112.353 248.385,110.875 243.605,110.822 245.326 M136.847 251.740 C 136.821 252.586,137.054 253.846,137.364 254.540 C 137.674 255.233,138.020 256.070,138.133 256.400 C 138.287 256.854,138.345 256.823,138.368 256.274 C 138.386 255.874,138.202 255.177,137.960 254.725 C 137.718 254.273,137.379 253.070,137.207 252.051 L 136.894 250.200 136.847 251.740 M112.400 253.937 C 112.400 254.221,112.591 254.809,112.824 255.245 C 113.057 255.681,113.413 256.794,113.614 257.719 C 113.976 259.384,113.978 259.380,113.808 257.293 C 113.661 255.488,112.400 252.483,112.400 253.937 M138.465 259.800 C 138.448 260.680,138.715 262.120,139.057 263.000 C 139.399 263.880,139.818 265.320,139.989 266.200 C 140.288 267.741,140.302 267.752,140.350 266.508 C 140.377 265.798,140.118 264.511,139.773 263.648 C 139.427 262.786,138.999 261.207,138.820 260.140 L 138.494 258.200 138.465 259.800 M114.101 261.000 C 114.105 261.880,114.187 262.193,114.283 261.695 C 114.379 261.198,114.375 260.478,114.275 260.095 C 114.175 259.713,114.096 260.120,114.101 261.000 M114.420 263.000 C 114.416 263.220,114.671 264.120,114.988 265.000 C 115.445 266.268,115.566 266.393,115.568 265.600 C 115.570 265.050,115.314 264.150,115.000 263.600 C 114.686 263.050,114.425 262.780,114.420 263.000 M115.714 268.600 C 115.717 269.700,115.795 270.103,115.887 269.495 C 115.979 268.886,115.977 267.986,115.882 267.495 C 115.787 267.003,115.711 267.500,115.714 268.600 M140.400 268.277 C 140.400 269.170,143.632 269.200,239.361 269.200 C 327.575 269.200,337.239 269.262,338.922 269.835 C 339.948 270.185,341.015 270.390,341.294 270.291 C 341.572 270.192,340.822 269.817,339.627 269.456 C 337.639 268.856,329.119 268.800,239.407 268.800 C 163.682 268.800,141.251 268.691,140.880 268.320 C 140.559 267.999,140.400 267.985,140.400 268.277 M344.253 271.964 C 345.324 272.825,346.275 273.455,346.367 273.364 C 346.458 273.274,346.458 273.153,346.367 273.096 C 346.275 273.039,345.446 272.409,344.523 271.696 C 342.142 269.855,341.912 270.084,344.253 271.964 M115.509 272.029 C 115.137 272.677,114.331 273.398,113.717 273.631 C 112.426 274.122,108.550 276.633,108.194 277.210 C 107.820 277.815,108.460 277.670,109.166 276.990 C 110.164 276.030,112.891 274.327,114.112 273.901 C 114.724 273.688,115.502 272.976,115.842 272.319 C 116.653 270.751,116.379 270.513,115.509 272.029 M346.414 274.022 C 346.406 274.145,346.850 274.855,347.400 275.600 C 347.950 276.345,348.399 276.785,348.398 276.578 C 348.396 276.172,346.438 273.651,346.414 274.022 M104.500 280.570 C 102.905 282.200,101.600 283.656,101.600 283.807 C 101.600 283.958,102.950 282.701,104.600 281.013 C 107.260 278.292,107.858 277.589,107.500 277.604 C 107.445 277.606,106.095 278.941,104.500 280.570 M348.486 281.600 C 348.486 284.676,348.522 284.838,348.866 283.300 C 349.107 282.224,349.107 280.976,348.866 279.900 C 348.522 278.362,348.486 278.524,348.486 281.600 M100.429 285.454 C 99.973 286.034,99.612 286.709,99.627 286.954 C 99.642 287.199,99.849 286.995,100.088 286.500 C 100.327 286.005,100.655 285.600,100.818 285.600 C 100.981 285.600,101.218 285.330,101.345 285.000 C 101.687 284.108,101.360 284.270,100.429 285.454 M348.032 285.974 C 348.014 286.290,347.609 286.964,347.132 287.473 C 346.654 287.981,346.352 288.485,346.460 288.594 C 346.790 288.924,348.467 286.393,348.258 285.880 C 348.129 285.563,348.052 285.595,348.032 285.974 M98.662 288.331 C 98.298 288.734,97.999 289.319,97.999 289.631 C 97.998 289.944,97.638 290.789,97.199 291.510 C 96.182 293.177,96.170 293.600,97.175 292.322 C 97.602 291.780,98.076 290.811,98.229 290.168 C 98.382 289.526,98.781 288.685,99.116 288.300 C 99.926 287.367,99.508 287.396,98.662 288.331 M341.944 292.030 C 341.425 292.487,341.226 292.746,341.501 292.606 C 343.793 291.441,344.137 291.205,343.544 291.202 C 343.184 291.201,342.464 291.574,341.944 292.030 M126.600 294.000 C 125.940 294.437,125.591 294.796,125.824 294.797 C 126.056 294.799,126.596 294.536,127.024 294.213 C 128.268 293.271,134.016 293.393,135.896 294.400 C 136.716 294.840,137.607 295.200,137.874 295.200 C 138.142 295.200,138.544 295.515,138.768 295.900 C 138.992 296.285,139.181 296.397,139.188 296.149 C 139.205 295.523,138.393 294.914,137.114 294.593 C 136.519 294.444,135.823 294.069,135.567 293.761 C 134.785 292.818,128.116 292.996,126.600 294.000 M166.900 293.465 C 166.625 293.576,166.414 294.057,166.432 294.533 C 166.453 295.110,166.535 295.199,166.678 294.800 C 166.796 294.470,167.176 293.975,167.522 293.700 C 168.152 293.200,167.844 293.084,166.900 293.465 M289.521 293.736 C 289.227 294.030,288.719 294.376,288.393 294.504 C 287.874 294.708,287.874 294.739,288.400 294.756 C 288.730 294.766,289.349 294.510,289.776 294.187 C 290.896 293.341,296.857 293.380,298.314 294.243 L 299.400 294.887 298.456 294.043 C 297.298 293.009,290.483 292.774,289.521 293.736 M329.067 293.467 C 328.544 293.989,328.813 296.340,329.591 298.056 C 330.026 299.015,330.380 299.530,330.377 299.200 C 330.374 298.870,330.114 298.150,329.800 297.600 C 328.676 295.634,329.010 293.674,330.500 293.489 L 331.800 293.328 330.567 293.264 C 329.888 293.229,329.213 293.320,329.067 293.467 M96.060 294.600 C 96.027 295.040,95.640 296.347,95.200 297.504 C 94.760 298.662,94.422 300.282,94.450 301.104 C 94.496 302.487,94.523 302.450,94.810 300.600 C 94.981 299.500,95.421 298.017,95.788 297.305 C 96.154 296.592,96.379 295.512,96.287 294.905 C 96.183 294.215,96.097 294.100,96.060 294.600 M122.468 296.653 C 121.330 297.672,120.401 298.707,120.402 298.953 C 120.403 299.199,120.808 298.911,121.302 298.313 C 121.796 297.716,122.900 296.681,123.755 296.013 C 124.610 295.346,125.136 294.800,124.923 294.800 C 124.710 294.800,123.605 295.634,122.468 296.653 M284.662 296.991 C 283.418 298.196,282.400 299.391,282.400 299.646 C 282.400 299.901,282.955 299.410,283.634 298.555 C 284.312 297.700,285.143 296.845,285.479 296.655 C 286.355 296.160,287.663 294.800,287.262 294.800 C 287.076 294.800,285.906 295.786,284.662 296.991 M300.195 295.285 C 301.783 296.206,304.400 298.702,304.400 299.296 C 304.400 299.504,304.760 300.131,305.200 300.691 C 305.640 301.250,306.000 301.516,306.000 301.283 C 306.000 301.049,305.754 300.611,305.453 300.310 C 305.152 300.009,304.783 299.375,304.632 298.901 C 304.316 297.904,300.751 294.794,299.944 294.812 C 299.622 294.819,299.724 295.012,300.195 295.285 M140.412 297.100 C 140.405 297.375,140.750 297.950,141.178 298.378 C 146.046 303.246,144.432 313.074,138.108 317.078 C 137.177 317.667,136.481 318.215,136.561 318.294 C 137.179 318.912,142.786 313.854,142.809 312.659 C 142.814 312.406,143.170 311.750,143.600 311.200 C 145.427 308.864,144.266 300.598,141.830 298.600 C 141.561 298.380,141.135 297.840,140.883 297.400 C 140.631 296.960,140.419 296.825,140.412 297.100 M166.834 297.694 C 166.800 298.775,167.394 301.659,168.049 303.600 C 168.634 305.330,168.142 301.250,167.471 298.800 C 167.048 297.259,166.858 296.928,166.834 297.694 M257.246 299.700 C 256.951 301.075,256.668 303.640,256.618 305.400 C 256.544 307.988,256.556 308.068,256.682 305.818 C 256.768 304.288,257.010 302.829,257.219 302.577 C 257.597 302.121,258.265 297.200,257.949 297.200 C 257.857 297.200,257.541 298.325,257.246 299.700 M281.454 301.373 C 281.094 301.923,280.800 302.686,280.800 303.071 C 280.800 303.455,281.157 303.068,281.594 302.212 C 282.507 300.420,282.420 299.899,281.454 301.373 M330.554 306.800 C 330.554 309.550,330.618 310.675,330.696 309.300 C 330.774 307.925,330.774 305.675,330.696 304.300 C 330.618 302.925,330.554 304.050,330.554 306.800 M118.531 306.200 C 118.533 307.740,118.605 308.321,118.692 307.491 C 118.779 306.661,118.777 305.401,118.689 304.691 C 118.600 303.981,118.529 304.660,118.531 306.200 M306.509 306.400 C 306.509 307.390,306.587 307.795,306.682 307.300 C 306.778 306.805,306.778 305.995,306.682 305.500 C 306.587 305.005,306.509 305.410,306.509 306.400 M167.492 311.457 C 167.111 313.029,166.821 314.829,166.846 315.457 C 166.878 316.226,166.946 316.338,167.055 315.800 C 167.145 315.360,167.500 313.890,167.844 312.533 C 168.189 311.175,168.407 309.735,168.328 309.333 C 168.249 308.930,167.873 309.886,167.492 311.457 M280.800 309.352 C 280.800 309.749,281.160 310.531,281.600 311.091 C 282.040 311.650,282.400 312.032,282.400 311.939 C 282.400 311.845,282.040 311.063,281.600 310.200 C 281.142 309.302,280.800 308.940,280.800 309.352 M256.978 310.400 C 257.697 315.838,259.494 322.247,259.582 319.686 C 259.592 319.403,259.342 318.773,259.027 318.286 C 258.712 317.799,258.252 315.903,258.005 314.073 C 257.757 312.244,257.383 310.354,257.174 309.873 C 256.863 309.161,256.827 309.259,256.978 310.400 M94.493 311.600 C 94.493 312.370,94.575 312.685,94.676 312.300 C 94.776 311.915,94.776 311.285,94.676 310.900 C 94.575 310.515,94.493 310.830,94.493 311.600 M305.646 311.082 C 305.577 311.803,303.944 314.091,302.472 315.530 C 301.757 316.229,301.321 316.800,301.503 316.800 C 301.684 316.800,302.505 316.035,303.327 315.100 C 304.149 314.165,305.103 313.100,305.447 312.733 C 305.790 312.366,305.986 311.736,305.882 311.333 C 305.778 310.930,305.672 310.817,305.646 311.082 M282.434 312.800 C 282.386 313.815,287.576 318.608,288.419 318.327 C 288.652 318.249,288.035 317.676,287.048 317.052 C 285.223 315.899,283.100 313.815,282.690 312.775 C 282.499 312.291,282.459 312.295,282.434 312.800 M94.814 313.526 C 94.806 313.816,94.991 314.409,95.224 314.845 C 95.457 315.281,95.798 316.394,95.980 317.319 L 96.312 319.000 96.343 317.600 C 96.359 316.830,96.025 315.480,95.600 314.600 C 95.175 313.720,94.821 313.237,94.814 313.526 M329.486 314.822 C 329.109 315.693,328.806 316.809,328.813 317.303 C 328.821 317.796,329.190 317.144,329.634 315.854 C 330.571 313.129,330.484 312.519,329.486 314.822 M121.670 315.173 C 122.181 315.818,122.870 316.459,123.200 316.597 C 123.530 316.736,123.180 316.208,122.422 315.425 C 120.749 313.696,120.407 313.582,121.670 315.173 M124.600 317.600 C 124.998 318.040,125.504 318.400,125.723 318.400 C 125.943 318.400,125.707 318.040,125.200 317.600 C 124.693 317.160,124.187 316.800,124.077 316.800 C 123.966 316.800,124.202 317.160,124.600 317.600 M299.656 317.613 C 298.956 318.196,298.874 318.400,299.342 318.400 C 299.688 318.400,300.165 318.040,300.400 317.600 C 300.926 316.618,300.849 316.619,299.656 317.613 M165.879 318.774 C 165.506 319.406,165.200 320.163,165.200 320.456 C 165.200 320.749,165.571 320.297,166.024 319.451 C 166.990 317.649,166.871 317.094,165.879 318.774 M129.900 319.299 C 130.802 319.588,131.598 319.588,132.500 319.299 C 133.684 318.919,133.569 318.882,131.200 318.882 C 128.831 318.882,128.716 318.919,129.900 319.299 M292.660 319.287 C 293.519 319.564,294.284 319.561,295.060 319.278 C 296.066 318.912,295.918 318.864,293.800 318.872 C 291.610 318.881,291.510 318.917,292.660 319.287 M97.069 320.862 C 97.528 321.780,97.852 322.096,97.939 321.712 C 98.015 321.375,97.687 320.718,97.208 320.250 L 96.339 319.400 97.069 320.862 M259.618 320.800 C 259.610 321.130,260.048 322.120,260.590 323.000 C 261.168 323.939,261.580 324.321,261.588 323.924 C 261.594 323.552,261.402 323.125,261.160 322.976 C 260.919 322.826,260.476 322.141,260.176 321.452 C 259.876 320.763,259.625 320.470,259.618 320.800 M326.832 322.446 C 326.814 322.801,326.419 323.576,325.954 324.167 C 325.489 324.758,325.178 325.312,325.263 325.397 C 325.575 325.709,327.272 322.819,327.071 322.318 C 326.929 321.964,326.853 322.005,326.832 322.446 M98.000 323.061 C 98.000 323.290,98.360 323.893,98.800 324.400 C 99.240 324.907,99.600 325.480,99.600 325.673 C 99.600 326.962,106.206 334.049,109.600 336.400 C 111.567 337.763,111.136 337.338,106.923 333.759 C 104.829 331.979,100.000 326.365,100.000 325.709 C 100.000 325.515,99.550 324.745,99.000 324.000 C 98.450 323.255,98.000 322.832,98.000 323.061 M162.453 325.673 C 161.932 326.314,161.598 326.931,161.710 327.043 C 161.821 327.155,162.312 326.685,162.800 326.000 C 163.944 324.393,163.688 324.151,162.453 325.673 M261.600 324.980 C 261.600 325.148,262.050 325.819,262.600 326.473 C 263.150 327.127,263.600 327.513,263.600 327.331 C 263.599 327.149,263.149 326.477,262.600 325.838 C 262.050 325.199,261.600 324.813,261.600 324.980 M324.100 327.168 C 323.715 327.590,322.770 328.778,322.000 329.807 C 320.682 331.570,315.384 336.400,314.769 336.400 C 314.613 336.400,314.378 336.680,314.247 337.022 C 314.115 337.365,315.311 336.578,316.904 335.274 C 319.572 333.090,321.542 331.053,324.229 327.700 C 325.350 326.301,325.254 325.903,324.100 327.168 M160.591 328.640 C 160.156 329.185,159.440 330.007,159.000 330.465 L 158.200 331.299 159.100 330.835 C 159.595 330.580,160.000 330.205,160.000 330.002 C 160.000 329.798,160.392 329.266,160.871 328.820 C 161.350 328.374,161.661 327.927,161.562 327.828 C 161.463 327.730,161.026 328.095,160.591 328.640 M264.575 329.332 C 265.191 330.139,265.776 330.800,265.875 330.800 C 266.153 330.800,264.421 328.460,263.909 328.144 C 263.659 327.989,263.959 328.524,264.575 329.332 M266.400 331.208 C 266.400 331.636,268.944 334.033,269.936 334.540 C 270.301 334.727,270.121 334.457,269.536 333.940 C 268.951 333.423,268.006 332.513,267.436 331.918 C 266.866 331.323,266.400 331.004,266.400 331.208 M156.169 333.473 C 155.086 334.503,154.560 335.094,155.000 334.786 C 155.999 334.088,158.603 331.600,158.336 331.600 C 158.227 331.600,157.252 332.443,156.169 333.473 M270.423 335.356 C 270.817 335.750,273.641 337.600,273.848 337.600 C 274.254 337.600,271.797 335.735,271.012 335.447 C 270.579 335.288,270.314 335.247,270.423 335.356 M152.238 336.600 C 151.644 337.150,151.277 337.600,151.422 337.600 C 151.566 337.600,152.219 337.150,152.873 336.600 C 153.527 336.050,153.894 335.600,153.689 335.600 C 153.484 335.600,152.831 336.050,152.238 336.600 M112.509 338.400 C 113.069 338.840,113.657 339.200,113.817 339.200 C 113.977 339.200,113.650 338.840,113.091 338.400 C 112.531 337.960,111.943 337.600,111.783 337.600 C 111.623 337.600,111.950 337.960,112.509 338.400 M275.322 338.613 C 275.940 339.156,276.840 339.585,277.322 339.566 C 278.034 339.538,277.977 339.465,277.024 339.180 C 276.377 338.987,275.693 338.552,275.504 338.214 C 275.315 337.876,274.944 337.606,274.680 337.613 C 274.416 337.620,274.705 338.070,275.322 338.613 M311.762 338.458 C 311.005 339.310,311.006 339.313,311.878 338.856 C 312.850 338.346,313.449 337.600,312.886 337.600 C 312.687 337.600,312.181 337.986,311.762 338.458 M116.080 340.131 C 117.114 340.695,118.644 341.283,119.480 341.438 C 120.316 341.594,121.399 341.980,121.887 342.298 C 122.375 342.615,123.005 342.782,123.287 342.669 C 123.609 342.540,123.539 342.451,123.100 342.432 C 122.715 342.414,122.400 342.233,122.400 342.028 C 122.400 341.824,121.365 341.445,120.100 341.187 C 118.835 340.928,117.530 340.480,117.200 340.190 C 116.870 339.900,116.060 339.537,115.400 339.384 C 114.446 339.163,114.585 339.316,116.080 340.131 M281.200 341.223 C 281.970 341.444,283.259 341.910,284.065 342.257 C 284.871 342.605,285.771 342.794,286.065 342.677 C 286.421 342.535,286.361 342.453,285.886 342.432 C 285.493 342.414,284.773 342.147,284.286 341.838 C 283.799 341.530,282.590 341.174,281.600 341.049 C 279.881 340.830,279.863 340.838,281.200 341.223 M140.589 341.752 C 140.155 342.055,139.440 342.409,139.000 342.538 C 138.471 342.692,138.539 342.719,139.200 342.618 C 141.051 342.335,143.549 341.238,142.389 341.218 C 141.833 341.208,141.023 341.448,140.589 341.752 M302.600 342.045 C 301.940 342.507,301.760 342.751,302.200 342.588 C 305.806 341.253,305.839 341.236,304.800 341.220 C 304.250 341.212,303.260 341.583,302.600 342.045 M128.482 343.096 C 129.958 343.173,132.478 343.173,134.082 343.097 C 135.687 343.021,134.480 342.958,131.400 342.958 C 128.320 342.957,127.007 343.019,128.482 343.096 M290.900 343.097 C 292.385 343.174,294.815 343.174,296.300 343.097 C 297.785 343.020,296.570 342.957,293.600 342.957 C 290.630 342.957,289.415 343.020,290.900 343.097 " stroke="none" fill="#7c947c" fill-rule="evenodd"></path></g></svg>